<svg width="154" height="11" viewBox="0 0 154 11" fill="none" xmlns="http://www.w3.org/2000/svg">
<path d="M1 3L7.43495 7.2689C12.9343 10.9172 20.2363 10.2213 24.9475 5.5999L25.6675 4.89364C30.7029 -0.0456566 38.8202 0.00802712 43.8556 4.94733V4.94733C48.7242 9.723 56.536 9.89005 61.5446 5.26149V5.26149C66.5454 0.640262 74.2899 0.747151 79.1612 5.50462L79.4695 5.80568C84.3996 10.6206 92.272 10.62 97.2022 5.80511V5.80511C102.185 0.938656 110.217 1.05569 115.126 5.99688V5.99688C120.024 10.9279 128.058 10.9854 132.957 6.05437V6.05437C137.891 1.08709 145.94 1.12907 150.822 6.14756L153 8.38596" stroke="black"/>
</svg>
