<svg width="39" height="40" viewBox="0 0 39 40" fill="none" xmlns="http://www.w3.org/2000/svg">
<circle cx="19" cy="20" r="19" stroke="#10111F" stroke-width="0.8"/>
<path d="M28 24.42V27.956C28.0002 28.4813 27.594 28.9172 27.07 28.954C26.633 28.984 26.276 29 26 29C17.163 29 10 21.837 10 13C10 12.724 10.015 12.367 10.046 11.93C10.0828 11.406 10.5187 10.9998 11.044 11H14.58C14.837 10.9997 15.0523 11.1943 15.078 11.45C15.101 11.68 15.122 11.863 15.142 12.002C15.3407 13.3889 15.748 14.7378 16.35 16.003C16.445 16.203 16.383 16.442 16.203 16.57L14.045 18.112C15.3645 21.1865 17.8145 23.6365 20.889 24.956L22.429 22.802C22.5589 22.6204 22.8001 22.5577 23.002 22.653C24.267 23.2539 25.6156 23.6601 27.002 23.858C27.141 23.878 27.324 23.9 27.552 23.922C27.8073 23.9482 28.0013 24.1634 28.001 24.42H28Z" fill="black"/>
</svg>
